HIERARCHY
ROOT hip
{
	OFFSET 0.000000 0.000000 0.000000 
	CHANNELS 6 Xposition Yposition Zposition Xrotation Zrotation Yrotation
	JOINT abdomen
	{
		OFFSET 0.000000 3.402643 0.000000 
		CHANNELS 3 Xrotation Zrotation Yrotation
		JOINT chest
		{
			OFFSET 0.000000 8.438565 -0.680529 
			CHANNELS 3 Xrotation Zrotation Yrotation
			JOINT neck
			{
				OFFSET 0.000000 10.207942 -0.272212 
				CHANNELS 3 Xrotation Zrotation Yrotation
				JOINT head
				{
					OFFSET 0.000000 3.130431 0.000000 
					CHANNELS 3 Xrotation Zrotation Yrotation
					End Site
					{
						OFFSET 0.000000 3.130435 0.000000 
					}
				}
			}
			JOINT lCollar
			{
				OFFSET 3.470700 6.669187 -0.816635 
				CHANNELS 3 Yrotation Zrotation Xrotation
				JOINT lShldr
				{
					OFFSET 3.198488 0.000000 0.000000 
					CHANNELS 3 Zrotation Yrotation Xrotation
					JOINT lForeArm
					{
						OFFSET 10.139888 0.000000 0.000000 
						CHANNELS 3 Yrotation Zrotation Xrotation
						JOINT lHand
						{
							OFFSET 8.370511 0.000000 0.000000 
							CHANNELS 3 Zrotation Yrotation Xrotation
							End Site
							{
								OFFSET 4.083176 0.000000 0.000000 
							}
						}
					}
				}
			}
			JOINT rCollar
			{
				OFFSET -3.470700 6.669187 -0.816635 
				CHANNELS 3 Yrotation Zrotation Xrotation
				JOINT rShldr
				{
					OFFSET -3.198488 0.000000 0.000000 
					CHANNELS 3 Zrotation Yrotation Xrotation
					JOINT rForeArm
					{
						OFFSET -10.139888 0.000000 0.000000 
						CHANNELS 3 Yrotation Zrotation Xrotation
						JOINT rHand
						{
							OFFSET -8.370511 0.000000 0.000000 
							CHANNELS 3 Zrotation Yrotation Xrotation
							End Site
							{
								OFFSET -4.083176 0.000000 0.000000 
							}
						}
					}
				}
			}
		}
	}
	JOINT lThigh
	{
		OFFSET 5.308129 -1.633274 1.361059 
		CHANNELS 3 Xrotation Zrotation Yrotation
		JOINT lShin
		{
			OFFSET -2.041588 -20.007561 0.000000 
			CHANNELS 3 Xrotation Zrotation Yrotation
			JOINT lFoot
			{
				OFFSET 0.000000 -19.190928 -1.224953 
				CHANNELS 3 Xrotation Yrotation Zrotation
				End Site
				{
					OFFSET 0.000000 -2.449906 4.627600 
				}
			}
		}
	}
	JOINT rThigh
	{
		OFFSET -5.308129 -1.633274 1.361059 
		CHANNELS 3 Xrotation Zrotation Yrotation
		JOINT rShin
		{
			OFFSET 2.041588 -20.007561 0.000000 
			CHANNELS 3 Xrotation Zrotation Yrotation
			JOINT rFoot
			{
				OFFSET 0.000000 -19.190928 -1.224953 
				CHANNELS 3 Xrotation Yrotation Zrotation
				End Site
				{
					OFFSET 0.000000 -2.449906 4.627600 
				}
			}
		}
	}
}
MOTION
Frames: 11
Frame Time: 0.016667
-0.920901 44.487278 -0.038566 7.174480 -7.102730 -2.894070 -27.830900 2.233150 1.790050 10.747600 -1.703260 1.261100 27.143600 -5.178610 -3.268650 16.327400 1.634880 -0.664928 2.000000 -2.000000 0.000000 -88.514702 -2.525570 -148.179001 88.272003 -0.218972 0.136700 0.066189 -0.060362 -159.020996 -2.000000 2.000000 0.000000 76.306900 13.954900 -145.069000 -103.399002 0.185430 0.113740 -0.056061 0.023029 -145.173996 1.072209 3.361685 -39.281357 -0.117214 4.235208 -0.125612 -17.709909 46.974594 13.145229 -3.986136 8.035904 23.605156 1.951610 -1.749964 -0.314904 -5.626553 -20.548832 -3.027062 
-0.925016 44.487015 -0.044740 7.146330 -7.190390 -2.872000 -27.831400 2.203950 1.739740 10.708200 -1.751170 1.231550 27.205900 -5.195860 -3.166350 16.346901 1.625170 -0.598096 2.000000 -2.000000 0.000000 -88.417297 -2.428310 -148.373993 88.154800 -0.219251 0.136691 0.066220 -0.060438 -159.050995 -2.000000 2.000000 0.000000 76.296303 14.305100 -144.356003 -102.764000 0.186800 0.114058 -0.055007 0.013957 -141.912003 1.104568 3.470689 -39.179985 -0.153427 4.243700 -0.135015 -17.649849 46.876816 13.073504 -3.826030 7.960036 23.590441 1.519435 -1.523699 -0.306368 -5.498636 -20.536728 -3.188661 
-0.931784 44.480717 -0.048656 7.019450 -7.260220 -2.971820 -27.791700 2.209480 1.781750 10.698200 -1.799220 1.259730 27.353600 -4.961300 -3.079320 16.425800 1.710360 -0.557472 2.000000 -2.000000 0.000000 -88.309799 -2.555160 -148.324997 87.940002 -0.219764 0.136674 0.066158 -0.060286 -158.992004 -2.000000 2.000000 0.000000 75.914200 14.479000 -143.389008 -100.449997 0.191823 0.115089 -0.054662 -0.009210 -133.630997 1.298510 3.535266 -39.207626 -0.165471 4.233492 -0.134635 -17.919945 46.973385 13.308932 -3.864084 8.233457 23.431879 2.015939 -1.765130 -0.303774 -5.620021 -20.327002 -2.999344 
-0.941296 44.471581 -0.052256 6.871950 -7.272170 -3.159540 -27.700899 2.213480 1.957250 10.775900 -1.886260 1.350310 27.474001 -4.547520 -3.046340 16.515100 1.862140 -0.559804 2.000000 -2.000000 0.000000 -88.114197 -2.827990 -148.022003 87.774002 -0.220160 0.136659 0.066210 -0.060413 -159.041000 -2.000000 2.000000 0.000000 75.464203 14.605000 -142.871002 -96.504303 0.200468 0.116377 -0.056820 -0.027780 -126.950996 1.529843 3.527312 -39.200218 -0.149737 4.244154 -0.115724 -18.328423 47.062496 13.646416 -3.658711 8.155547 23.316132 1.825736 -1.641798 -0.317972 -5.580224 -19.992180 -3.054579 
-0.956798 44.465672 -0.065401 6.752660 -7.196360 -3.389490 -27.464001 2.257050 2.126760 11.196300 -1.840420 1.435970 27.327801 -4.250200 -3.087060 16.486700 1.967300 -0.605922 2.000000 -2.000000 0.000000 -87.938004 -3.335070 -147.660004 87.715401 -0.220299 0.136653 0.066427 -0.060945 -159.246002 -2.000000 2.000000 0.000000 75.003998 15.071800 -141.863998 -92.148903 0.210089 0.117105 -0.055594 -0.019558 -129.919998 1.453595 3.482804 -38.972237 -0.046285 4.217142 -0.115036 -18.245386 47.024506 13.593352 -3.641315 8.130182 23.231041 1.996196 -1.685208 -0.333597 -5.595606 -19.644403 -2.963390 
-0.971893 44.458210 -0.092151 6.601540 -6.955980 -3.683860 -27.374201 2.306000 2.256650 11.256100 -1.609430 1.493900 27.271099 -4.177650 -3.123990 16.457701 1.996190 -0.629914 2.000000 -2.000000 0.000000 -87.830299 -3.471430 -147.483994 87.803299 -0.220090 0.136662 0.066604 -0.061375 -159.412003 -2.000000 2.000000 0.000000 74.660599 15.557900 -140.681000 -88.760300 0.217807 0.136693 -0.054472 0.004867 -138.660004 1.622620 3.224736 -38.865406 -0.010007 4.216993 -0.135168 -18.552467 47.107136 13.867867 -3.710560 8.027111 23.248531 2.418190 -1.861600 -0.324205 -5.749919 -19.365652 -2.835484 
-0.971393 44.444450 -0.123988 6.369770 -6.541750 -4.079080 -27.332300 2.335220 2.417620 11.100800 -1.377520 1.567230 27.292900 -4.221590 -3.156260 16.467300 1.977030 -0.643550 2.000000 -2.000000 0.000000 -87.791199 -3.383440 -147.434998 87.959503 -0.219717 0.136675 0.066667 -0.061526 -159.470993 -2.000000 2.000000 0.000000 74.582497 16.055700 -140.505005 -87.129402 0.221696 0.136553 -0.058908 0.037764 -150.535004 2.157845 2.684885 -39.218216 0.027237 4.236581 -0.125644 -19.995461 47.488678 15.081609 -3.643840 7.610781 23.387991 2.620619 -1.919198 -0.349475 -5.940265 -19.041025 -2.821315 
-0.971102 44.440464 -0.078976 6.362460 -6.735990 -4.050660 -27.312300 2.385440 2.468610 11.237100 -1.474430 1.599280 27.266001 -4.065940 -3.207980 16.467699 2.015170 -0.683958 2.000000 -2.000000 0.000000 -87.712898 -3.334300 -147.279007 88.066902 -0.219461 0.136684 0.066583 -0.061324 -159.391998 -2.000000 2.000000 0.000000 74.377403 16.202000 -140.455994 -85.410698 0.225788 0.136286 -0.067422 0.063314 -160.164001 2.128405 2.882582 -39.304401 -0.007014 4.217172 -0.124889 -20.047361 47.551884 15.149822 -3.444072 7.740166 23.108654 2.350550 -1.822074 -0.335340 -5.842850 -18.828674 -2.857251 
-0.973476 44.438148 -0.061829 6.363230 -6.794220 -4.057110 -27.387300 2.392610 2.626540 11.041000 -1.627690 1.688710 27.094200 -3.761280 -3.285400 16.420000 2.130100 -0.738638 2.000000 -2.000000 0.000000 -87.624603 -3.314200 -146.996002 88.184097 -0.219182 0.136693 0.066385 -0.060844 -159.207001 -2.000000 2.000000 0.000000 73.848396 15.663300 -139.587006 -85.371597 0.225881 0.136279 -0.066930 0.062157 -159.714996 2.196606 2.931356 -39.296021 -0.054851 4.216700 -0.134682 -20.303244 47.546177 15.351442 -3.314197 7.703115 23.097511 2.079476 -1.692502 -0.341272 -5.798007 -18.752600 -2.909792 
-0.983783 44.432228 -0.064259 6.340160 -6.532420 -3.918420 -27.248199 2.353840 2.715490 11.158700 -1.531900 1.718270 26.531900 -3.580920 -3.353310 16.205900 2.218210 -0.815969 2.000000 -2.000000 0.000000 -87.712303 -3.557930 -146.789993 88.311096 -0.218879 0.136703 0.066199 -0.060388 -159.031006 -2.000000 2.000000 0.000000 73.448303 15.146400 -139.919998 -88.691902 0.217970 0.136689 -0.071600 0.048273 -154.431000 2.154219 2.654733 -39.219498 -0.042554 4.217004 -0.125101 -19.857861 47.450592 14.962515 -3.428397 7.603419 23.214878 2.505341 -1.939714 -0.312853 -6.042320 -18.978670 -2.820842 
-0.988331 44.429653 -0.062885 6.395480 -6.240530 -3.520450 -27.209101 2.205490 2.650920 11.168600 -1.512680 1.666000 26.045200 -3.514510 -3.378240 15.981800 2.287410 -0.859332 2.000000 -2.000000 0.000000 -87.770897 -3.499360 -146.800003 88.477097 -0.218483 0.136714 0.065974 -0.059830 -158.815994 -2.000000 2.000000 0.000000 73.576698 14.396700 -141.132996 -92.930099 0.208359 0.117028 -0.069783 0.042081 -152.126999 2.134146 2.299501 -39.275757 -0.004465 4.246464 -0.125612 -19.271080 47.265873 14.422969 -3.463013 7.278212 23.293301 2.438859 -1.960242 -0.304491 -6.230904 -19.392120 -2.959769 
